<?xml version="1.0" standalone="no"?>
<!DOCTYPE svg PUBLIC "-//W3C//DTD SVG 20010904//EN"
 "http://www.w3.org/TR/2001/REC-SVG-20010904/DTD/svg10.dtd">
<svg version="1.0" xmlns="http://www.w3.org/2000/svg"
 width="700.000000pt" height="700.000000pt" viewBox="0 0 700.000000 700.000000"
 preserveAspectRatio="xMidYMid meet">
<metadata>
Created by potrace 1.14, written by Peter Selinger 2001-2017
</metadata>
<g transform="translate(0.000000,700.000000) scale(0.100000,-0.100000)"
fill="#000000" stroke="none">
<path d="M3327 6414 c-1 -1 -38 -5 -82 -8 -109 -10 -165 -17 -230 -29 -21 -5
-83 -16 -125 -24 -169 -30 -444 -126 -650 -226 -151 -74 -404 -226 -497 -301
-404 -321 -656 -627 -861 -1042 -75 -153 -182 -429 -196 -507 -1 -7 -5 -21 -9
-32 -15 -46 -63 -296 -71 -372 -32 -287 -26 -623 14 -838 6 -27 13 -68 16 -90
8 -58 69 -288 98 -371 60 -177 164 -397 269 -574 236 -394 578 -739 976 -984
111 -69 334 -181 446 -226 177 -71 439 -145 580 -165 38 -5 60 -9 130 -20 152
-25 554 -25 730 0 226 31 366 63 543 121 738 244 1353 777 1693 1467 33 67 65
130 70 141 54 98 164 447 193 611 3 17 8 39 10 50 2 11 7 45 11 75 4 30 9 64
11 75 23 122 23 559 0 715 -3 14 -7 43 -9 65 -28 205 -85 423 -170 640 -46
118 -177 375 -251 493 -153 243 -393 518 -593 678 -47 38 -99 81 -117 95 -112
92 -389 253 -588 342 -180 80 -461 168 -612 193 -21 3 -48 8 -60 10 -11 2 -41
7 -66 10 -25 3 -56 7 -70 9 -72 12 -173 17 -343 19 -103 1 -189 1 -190 0z
m458 -448 c17 -3 80 -12 140 -21 173 -26 396 -88 549 -152 523 -221 1007 -681
1258 -1196 96 -194 184 -459 203 -602 1 -11 5 -38 9 -60 38 -225 42 -579 10
-810 -5 -34 -13 -79 -40 -215 -42 -212 -190 -555 -329 -762 -379 -561 -926
-944 -1521 -1067 -229 -47 -313 -55 -554 -56 -236 0 -319 8 -550 51 -145 27
-357 99 -515 174 -259 123 -469 273 -691 495 -82 82 -163 168 -180 190 -16 22
-31 42 -34 45 -72 67 -272 405 -344 580 -80 195 -148 482 -164 690 -9 123 -9
401 1 514 27 319 137 672 297 954 202 358 561 721 920 932 252 149 553 256
829 296 25 4 55 8 66 10 11 3 61 7 110 10 50 4 92 8 94 10 6 5 400 -4 436 -10z"/>
</g>
</svg>
